# xmcd CD database file
#
# Track frame offsets:
#	150
#	14594
#	34971
#	46331
#	60627
#	78040
#	86479
#	101939
#	110824
#	124194
#	141773
#	154232
#	170170
#	186401
#
# Disc length: 2580 seconds
#
# Revision: 0
# Processed by: cddbd v1.5.2PL0 Copyright (c) Steve Scherf et al.
# Submitted via: CDex 1.81
#
DISCID=c70a120e
DTITLE=Greene Brothers - Crazy Dreams
DYEAR=2015
DGENRE=Country
TTITLE0=Prairie Wedding
TTITLE1=Crazy Dream
TTITLE2=Some Day You're Gonna Be Old
TTITLE3=Smoked Greens and Fried Pike
TTITLE4=Turn the Heat on Baby
TTITLE5=Kate and Edith Too
TTITLE6=Sailing to Philadelphia
TTITLE7=The Billboard Song
TTITLE8=Dollar Green
TTITLE9=Too Stubborn
TTITLE10=Sway
TTITLE11=Quality Shoe
TTITLE12=Bunkhouse Blues
TTITLE13=If I Only Had a Brain
EXTD=YEAR: 2015
EXTT0=
EXTT1=
EXTT2=
EXTT3=
EXTT4=
EXTT5=
EXTT6=
EXTT7=
EXTT8=
EXTT9=
EXTT10=
EXTT11=
EXTT12=
EXTT13=
PLAYORDER=
